#!OML:ASF E:\Steps\Project 1\Capture day 1\Session 2\Subject.ASF
:FULLY-SPECIFIED
:DEGREES
465
root 3.77008 18.0577 9.60782 -149.017 -5.75757 175.664
lowerback -18.074 -2.36861 -7.63208
upperback 2.18864 -1.41144 -1.1093
thorax 12.8509 -1.19774 2.67678
lowerneck 7.24258 -4.15657 -5.85959
upperneck 17.9803 -9.68921 9.65495
head 4.93517 -5.47698 3.70052
rclavicle -4.17448e-015 -1.07344e-014
rhumerus -38.8553 -9.01561 -79.4347
rradius 40.3973
rwrist -7.63867
rhand -8.34511 -53.1299
rfingers 7.12502
rthumb 17.5768 -82.3554
lclavicle -4.17448e-015 -1.07344e-014
lhumerus -30.4356 -13.4411 79.6628
lradius 37.1808
lwrist 1.66021
lhand -22.4586 -12.7709
lfingers 7.12502
lthumb 3.96595 17.1719
rfemur -40.7703 9.60822 12.5302
rtibia 14.5042
rfoot -12.4107 -4.84996
rtoes -8.38791
lfemur -44.6334 -15.8073 -18.0833
ltibia 20.8737
lfoot -3.39207 -2.3661
ltoes -27.1915
466
root 3.76827 18.0457 9.56988 -149.231 -5.43442 175.968
lowerback -18.3946 -2.40107 -7.70458
upperback 2.20212 -1.41308 -1.04683
thorax 13.0601 -1.21237 2.77945
lowerneck 7.25947 -4.07529 -5.76664
upperneck 18.043 -9.5851 9.54613
head 4.93453 -5.43412 3.65446
rclavicle -1.74931e-014 2.46493e-014
rhumerus -38.905 -9.24698 -79.3605
rradius 40.065
rwrist -7.44064
rhand -8.33951 -53.3665
rfingers 7.12502
rthumb 17.5821 -82.5915
lclavicle -1.74931e-014 2.46493e-014
lhumerus -30.839 -13.1237 79.6885
lradius 37.1815
lwrist 1.86832
lhand -22.7172 -12.8152
lfingers 7.12502
lthumb 3.71621 17.1322
rfemur -40.494 9.62046 13.0664
rtibia 14.5337
rfoot -12.4641 -4.29267
rtoes -8.70861
lfemur -43.8986 -15.6385 -17.8613
ltibia 20.1329
lfoot -3.99163 -1.24364
ltoes -30.9937
467
root 3.7653 18.0353 9.53112 -149.531 -5.09467 176.255
lowerback -18.6383 -2.47083 -7.75029
upperback 2.21621 -1.47794 -0.98311
thorax 13.2313 -1.25335 2.85127
lowerneck 7.34701 -3.86459 -5.82856
upperneck 18.2042 -9.36308 9.52296
head 4.95229 -5.35097 3.6671
rclavicle 1.98785e-016 7.55382e-015
rhumerus -38.9525 -9.18722 -79.4076
rradius 39.7524
rwrist -7.40468
rhand -8.63146 -53.9155
rfingers 7.12502
rthumb 17.3012 -83.1654
lclavicle 1.98785e-016 7.55382e-015
lhumerus -31.2586 -12.5714 79.6825
lradius 37.1183
lwrist 1.93964
lhand -22.5929 -12.7212
lfingers 7.12502
lthumb 3.83619 17.2241
rfemur -40.1302 9.72578 13.56
rtibia 14.6297
rfoot -12.5855 -3.71344
rtoes -8.69695
lfemur -43.0083 -15.2429 -17.8637
ltibia 19.4362
lfoot -4.47758 -0.512657
ltoes -33.9728
468
root 3.75996 18.0269 9.48975 -149.973 -4.54893 176.576
lowerback -18.8386 -2.45794 -7.76963
upperback 2.31109 -1.434 -0.930251
thorax 13.4581 -1.24424 2.92856
lowerneck 7.3741 -3.64361 -6.03712
upperneck 18.4106 -9.13928 9.53743
head 5.00073 -5.27127 3.71348
rclavicle 1.88845e-014 6.36111e-014
rhumerus -38.7901 -9.11201 -79.3899
rradius 39.3285
rwrist -7.35717
rhand -8.22163 -53.8118
rfingers 7.12502
rthumb 17.6956 -83.0266
lclavicle 1.88845e-014 6.36111e-014
lhumerus -31.5017 -11.9515 79.7363
lradius 36.9291
lwrist 1.8314
lhand -22.6025 -12.4266
lfingers 7.12502
lthumb 3.82695 17.5188
rfemur -39.6567 10.1398 13.9652
rtibia 14.7496
rfoot -12.7413 -3.21042
rtoes -8.83962
lfemur -41.9212 -14.642 -17.9951
ltibia 18.7779
lfoot -4.74687 -0.256983
ltoes -34.0273
469
root 3.77035 18.0235 9.48115 -149.74 -4.6633 176.587
lowerback -19.0386 -2.70176 -8.07077
upperback 2.20183 -1.69303 -0.81155
thorax 13.4952 -1.39156 3.15017
lowerneck 7.24103 -3.58447 -6.13592
upperneck 18.4511 -9.05521 9.52885
head 5.03094 -5.23307 3.72509
rclavicle -9.54166e-015 -2.38542e-015
rhumerus -38.5578 -9.41471 -79.2916
rradius 38.974
rwrist -7.10381
rhand -7.62229 -54.2688
rfingers 7.12502
rthumb 18.2722 -83.4305
lclavicle -9.54166e-015 -2.38542e-015
lhumerus -31.5491 -11.3558 79.7558
lradius 36.7331
lwrist 1.78389
lhand -22.6776 -12.284
lfingers 7.12502
lthumb 3.75441 17.6627
rfemur -39.991 10.3652 13.8663
rtibia 14.962
rfoot -12.8736 -3.57782
rtoes -9.46051
lfemur -42.1528 -14.3226 -18.0308
ltibia 18.8956
lfoot -4.87313 -0.607011
ltoes -33.5829
